<?xml version="1.0" encoding="utf-8"?>
<svg viewBox="-810.003 20.335 1801.428 466.109" xmlns="http://www.w3.org/2000/svg">
  <defs/>
  <path opacity="1.000000" stroke="none" d="M -396.027 267.986 C -388.067 276.742 -380.419 285.304 -372.589 293.697 C -366.745 299.963 -367.01 306.026 -373.029 311.884 C -375.289 314.084 -376.757 317.288 -378.034 320.271 C -381.075 327.377 -384.321 334.471 -386.458 341.866 C -388.059 347.408 -386.005 352.696 -381.523 356.726 C -378.925 359.061 -376.47 361.564 -373.793 363.803 C -365.701 370.571 -366.675 379.118 -376.557 383.202 C -392.193 389.666 -408.05 395.596 -423.804 401.776 C -458.1 415.231 -492.356 428.791 -526.695 442.136 C -556.237 453.616 -585.737 465.231 -615.517 476.068 C -634.238 482.881 -654.825 475.891 -666.407 459.665 C -671.606 452.382 -676.741 444.833 -680.326 436.707 C -682.282 432.272 -681.62 426.294 -680.971 421.16 C -676.901 388.986 -659.625 366.768 -629.682 354.365 C -626.632 353.102 -623.603 351.789 -620.057 350.284 C -621.91 347.186 -623.559 344.428 -625.162 341.749 C -653.245 349.201 -686.878 373.141 -690.759 420.938 C -696.805 411.621 -702.536 402.981 -708.074 394.22 C -724.945 367.53 -741.793 340.825 -758.482 314.021 C -759.97 311.631 -760.941 308.488 -760.962 305.686 C -761.117 284.977 -756.708 265.752 -742.006 250.032 C -734.706 242.227 -725.911 236.741 -716.146 232.656 C -714.015 231.765 -711.865 230.917 -709.105 229.799 C -710.438 226.646 -711.688 223.689 -712.926 220.761 C -736.85 226.388 -768.007 248.452 -770.614 294.4 C -792.116 268.515 -796.522 240.636 -779.602 213.303 C -773.123 202.837 -763.426 195.724 -751.914 191.389 C -740.582 187.122 -729.119 183.201 -717.698 179.17 C -716.176 178.633 -714.565 178.345 -712.592 177.838 C -709.095 194.829 -705.717 211.374 -702.256 227.902 C -701.787 230.141 -701.455 232.79 -700.056 234.347 C -698.633 235.93 -695.506 237.623 -693.966 237.042 C -692.074 236.328 -690.468 233.471 -689.838 231.231 C -689.313 229.366 -690.376 227.055 -690.828 224.398 C -623.347 212.313 -555.959 200.243 -488.218 188.111 C -487.2 191.863 -486.21 195.335 -485.324 198.834 C -484.44 202.323 -482.999 205.575 -478.735 204.601 C -474.654 203.668 -473.554 200.317 -474.26 196.4 C -475.615 188.887 -477.013 181.381 -477.5 173.196 C -450.42 204.704 -423.341 236.212 -396.027 267.986 M -401.654 333.853 C -400.993 332.343 -400.364 330.818 -399.666 329.325 C -397.479 324.647 -395.266 319.981 -392.6 314.782 C -390.846 310.101 -389.091 305.421 -387.104 300.119 C -388.678 300.62 -389.318 300.786 -389.93 301.025 C -428.526 316.074 -467.128 331.108 -505.711 346.191 C -531.585 356.307 -557.492 366.344 -583.264 376.714 C -594.815 381.362 -606.661 385.74 -617.325 392.021 C -633.363 401.466 -642.761 416.145 -644.87 434.955 C -646.074 445.693 -640.842 455.661 -631.735 459.81 C -626.566 462.012 -621.372 461.861 -616.199 459.881 C -602.568 454.663 -588.93 449.465 -575.33 444.167 C -519.025 422.232 -462.731 400.265 -406.436 378.304 C -400.837 376.12 -395.254 373.895 -389.63 371.676 C -393.163 367.587 -396.297 363.959 -399.518 359.632 C -400.423 357.511 -401.328 355.39 -402.12 352.362 C -402.383 349.057 -402.646 345.753 -402.487 341.631 C -402.368 339.215 -402.249 336.798 -401.654 333.853 M -492.317 206.518 C -496.598 202.331 -500.02 207.893 -505.41 206.603 C -503.533 209.108 -502.607 210.343 -501.391 212.201 C -494.611 221.793 -487.83 231.385 -480.765 241.38 C -495.504 246.999 -509.579 252.459 -523.77 257.599 C -524.948 258.025 -527.452 256.705 -528.425 255.474 C -535.75 246.201 -542.956 236.828 -549.96 227.311 C -552.807 223.443 -555.766 222.648 -560.218 224.507 C -572.651 229.697 -585.21 234.585 -597.743 239.535 C -609.808 244.301 -621.957 248.86 -633.959 253.778 C -640.003 256.255 -640.248 257.762 -636.597 263.006 C -634.408 266.149 -632.173 269.26 -629.992 272.408 C -625.374 279.078 -620.778 285.763 -615.971 292.735 C -618.973 293.957 -621.432 294.634 -623.549 295.888 C -627.976 298.509 -630.377 296.922 -633.074 292.948 C -643.824 277.109 -654.891 261.483 -665.947 245.853 C -672.423 236.696 -669.771 237.65 -681.646 240.635 C -681.768 240.665 -681.853 240.842 -682.374 241.392 C -680.37 244.591 -678.402 248.032 -676.15 251.275 C -664.001 268.771 -651.76 286.202 -639.6 303.69 C -635.351 309.802 -632.033 310.828 -625.149 308.197 C -589.902 294.723 -554.64 281.286 -519.376 267.855 C -503.685 261.879 -487.947 256.024 -472.293 249.955 C -466.898 247.864 -464.924 243.747 -467.688 239.924 C -475.674 228.876 -484.009 218.08 -492.317 206.518 Z" fill="#040509"/>
  <path opacity="1.000000" stroke="none" d="M 735.812 320.156 C 738.489 321.718 740.958 323.097 743.005 324.943 C 747.998 329.446 752.342 334.821 757.803 338.611 C 763.172 342.337 767.316 341.294 770.184 335.503 C 773.733 328.337 777.294 320.68 778.38 312.891 C 780.879 294.981 777.034 290.882 758.754 288.248 C 743.754 286.088 734.992 276.552 734.671 261.317 C 734.033 231.051 746.136 206.477 769.213 187.367 C 787.539 172.192 816.34 174.624 834.857 192.073 C 839.956 196.877 844.163 202.871 847.814 208.903 C 851.669 215.272 850.296 219.062 844.295 223.241 C 839.389 226.658 834.483 230.076 829.521 233.41 C 824.283 236.929 821.063 236.504 817.008 231.676 C 811.712 225.372 805.855 219.825 798.171 216.482 C 795.589 215.359 793.602 215.579 791.66 217.864 C 784.396 226.407 780.174 236.047 780.786 247.42 C 781.145 254.095 784.854 257.996 791.413 259.303 C 796.6 260.337 801.849 261.209 806.908 262.701 C 818.748 266.195 824.357 275.187 825.584 286.671 C 829.234 320.869 816.262 348.655 790.266 370.019 C 768.034 388.29 727.188 381.804 713.024 348.926 C 711.756 345.981 711.726 342.503 711.121 339.272 C 711.606 339.591 712.09 339.91 712.575 340.229 C 705.603 346.48 698.709 352.82 691.641 358.96 C 681.469 367.797 670.089 374.329 656.655 376.901 C 649.195 378.33 647.001 377.244 644.062 370.082 C 641.315 363.385 638.537 356.7 635.604 349.602 C 631.271 354.595 627.46 359.395 623.204 363.761 C 619.744 367.31 616.04 370.776 611.928 373.5 C 605.258 377.917 598.399 377.817 591.548 373.117 C 572.25 359.879 564.679 342.061 568.743 318.84 C 574.917 283.571 585.851 249.861 600.936 217.484 C 603.921 211.077 607.768 204.89 612.169 199.357 C 626.709 181.076 651.403 176.448 672.328 187.602 C 674.231 188.616 676.056 189.777 677.949 190.888 C 678.179 190.744 678.524 190.657 678.594 190.467 C 682.461 180 682.458 179.995 693.957 180 C 699.79 180.003 705.626 179.901 711.455 180.058 C 720.704 180.307 723.498 184.246 720.805 193.381 C 714.034 216.354 707.185 239.304 700.311 262.247 C 694.574 281.396 688.755 300.52 682.99 319.66 C 682.804 320.277 682.802 320.949 683.43 322.084 C 685.418 319.46 687.445 316.863 689.386 314.205 C 692.613 309.787 694.715 309.293 699.382 312.248 C 704.29 315.357 709.187 318.495 713.945 321.826 C 718.505 325.019 718.888 327.43 716.633 332.893 C 720.589 329.875 724.465 326.743 728.534 323.887 C 730.65 322.402 733.108 321.404 735.812 320.156 M 635.567 304.606 C 651.336 278.774 662.4 250.968 670.831 221.617 C 668.12 221.047 665.885 220.525 663.63 220.112 C 654.893 218.513 652.081 219.698 647.386 227.072 C 646.055 229.163 644.824 231.336 643.748 233.569 C 633.227 255.401 625.223 278.133 619.733 301.731 C 618.254 308.09 617.287 314.569 616.086 320.992 C 616.641 321.402 617.195 321.812 617.751 322.223 C 620.073 320.992 622.932 320.256 624.61 318.432 C 628.418 314.295 631.645 309.623 635.567 304.606 M 715.212 333.69 C 715.212 333.69 715.278 333.801 715.212 333.69 Z" fill="#010101"/>
  <path opacity="1.000000" stroke="none" d="M -188.966 370.722 C -198.943 372.381 -208.545 374.778 -218.218 375.111 C -238.518 375.81 -258.855 375.441 -279.177 375.475 C -288.015 375.49 -290.825 371.817 -288.634 363.235 C -271.264 295.18 -253.89 227.126 -236.533 159.067 C -236.417 158.612 -236.519 158.102 -236.519 157.725 C -240.84 157.292 -245.227 157.348 -249.345 156.324 C -255.795 154.722 -257.202 151.758 -255.509 145.326 C -253.491 137.658 -251.546 129.968 -249.36 122.347 C -247.753 116.743 -245.037 114.772 -239.225 114.796 C -212.243 114.907 -185.255 114.752 -158.284 115.377 C -145.076 115.683 -132.402 119.24 -121.209 126.68 C -108.8 134.928 -101.913 146.578 -101.208 161.525 C -100.06 185.831 -105.163 208.57 -120.993 227.578 C -126.645 234.366 -134.645 239.198 -141.595 244.941 C -128.202 256.736 -129.284 273.46 -131.18 290.153 C -133.737 312.668 -142.615 332.587 -157.597 349.602 C -166.065 359.22 -176.308 366.477 -188.966 370.722 M -230.258 329.122 C -229.894 329.565 -229.468 330.432 -229.175 330.389 C -220.874 329.183 -212.108 329.184 -204.396 326.336 C -187.306 320.024 -174.928 295.564 -177.261 275.349 C -178.174 267.438 -182.562 262.517 -190.369 261.394 C -196.436 260.521 -202.593 260.296 -208.692 259.619 C -211.796 259.274 -212.796 260.374 -213.568 263.5 C -218.915 285.128 -224.593 306.674 -230.258 329.122 M -198.063 202.062 C -199.692 208.729 -201.322 215.397 -203.055 222.488 C -189.886 224.376 -178.51 221.915 -169.915 211.654 C -160.583 200.511 -157.335 186.991 -156.659 172.906 C -156.257 164.531 -160.116 159.419 -167.666 158.036 C -173.307 157.003 -179.227 157.378 -185.021 157.411 C -185.775 157.415 -186.934 159.016 -187.206 160.059 C -190.79 173.786 -194.248 187.547 -198.063 202.062 Z" fill="#010101"/>
  <path opacity="1.000000" stroke="none" d="M -639.126 201.313 C -657.182 204.618 -674.805 207.883 -693.123 211.278 C -694.841 203.042 -696.421 194.838 -698.338 186.715 C -698.819 184.679 -699.969 182.421 -701.516 181.073 C -729.937 156.288 -736.432 115.268 -716.778 83.818 C -701.294 59.042 -666.313 47.799 -639.51 59.287 C -633.464 61.878 -627.524 65.084 -622.225 68.952 C -616.93 72.818 -612.5 77.867 -607.65 82.436 C -605.694 77.892 -604.024 72.891 -601.509 68.359 C -588.272 44.501 -567.722 32.278 -540.6 33.561 C -515.189 34.764 -496.834 48.771 -485.47 70.91 C -471.131 98.848 -473.297 125.944 -492.673 151.244 C -493.773 152.681 -494.078 155.215 -493.82 157.112 C -493.042 162.829 -491.803 168.484 -490.645 174.691 C -540.404 183.625 -589.548 192.449 -639.126 201.313 M -503.041 139.234 C -502.394 138.716 -501.715 138.232 -501.105 137.674 C -494.937 132.034 -493.494 123.758 -497.378 116.379 C -501.322 108.885 -509.161 105.461 -517.609 107.541 C -525.643 109.52 -530.363 116.19 -530.637 124.761 C -531.022 136.828 -516.4 147.24 -503.041 139.234 M -545.571 84.3 C -533.593 89.588 -521.724 84.663 -519.402 73.441 C -517.474 64.123 -522.272 55.656 -531.27 52.495 C -538.668 49.896 -548.303 53.525 -552.037 60.316 C -556.749 68.888 -554.581 77.698 -545.571 84.3 M -679.745 137.439 C -680.893 137.621 -682.055 137.742 -683.187 137.996 C -691.692 139.902 -697.177 146.623 -697.146 155.06 C -697.117 163.028 -691.357 170.114 -683.431 171.933 C -675.15 173.834 -667.177 169.951 -663.361 162.555 C -658.197 152.548 -665.049 138.323 -679.745 137.439 M -649.91 117.709 C -650.107 118.681 -650.385 119.644 -650.487 120.625 C -651.487 130.161 -645.61 138.431 -636.66 140.122 C -627.449 141.863 -618.404 136.251 -616.327 127.506 C -614.189 118.504 -619.224 109.152 -627.748 106.29 C -636.413 103.381 -645.941 108.061 -649.91 117.709 M -689.252 106.702 C -683.34 112.374 -676.521 113.719 -669.08 110.392 C -662.789 107.578 -659.309 102.469 -659.097 95.527 C -658.858 87.687 -664.075 80.74 -671.708 78.248 C -678.639 75.985 -686.648 78.735 -691.107 84.908 C -695.547 91.055 -695.033 99.154 -689.252 106.702 M -577.128 95.81 C -578.068 96.748 -579.105 97.608 -579.932 98.637 C -584.894 104.806 -584.976 113.525 -580.188 119.893 C -575.208 126.515 -566.753 128.831 -559.324 125.606 C -551.717 122.304 -547.871 115.32 -549.215 107.036 C -551.061 95.656 -564.519 87.405 -577.128 95.81 M -533.035 107.47 C -529.721 104.988 -528.949 101.891 -531.14 98.353 C -532.957 95.419 -536.124 94.122 -538.83 95.933 C -540.91 97.324 -542.831 100.402 -543.009 102.861 C -543.304 106.935 -539.215 108.818 -533.035 107.47 M -659.974 129.942 C -657.602 127.179 -657.141 123.876 -659.805 121.569 C -661.575 120.035 -664.82 119.167 -667.147 119.553 C -670.755 120.153 -672.332 124.418 -671 127.824 C -669.533 131.579 -665.613 132.57 -659.974 129.942 Z" fill="#040509"/>
  <path opacity="1.000000" stroke="none" d="M 152.285 385.398 C 162.391 390.859 172.124 396.186 181.886 401.462 C 186.615 404.017 189.434 403.209 191.478 397.854 C 193.709 392.008 195.227 385.886 196.99 379.865 C 199.625 370.863 202.2 361.844 205.212 351.408 C 200.153 357.074 196.266 361.795 191.986 366.128 C 186.589 371.592 180.904 376.952 172.412 376.506 C 169.86 376.372 167.001 375.81 164.896 374.477 C 151.482 365.975 141.19 354.73 139.307 338.42 C 138.393 330.502 139.625 322.149 141.003 314.187 C 146.588 281.927 156.949 251.061 169.942 221.11 C 173.268 213.443 177.748 205.984 183.026 199.512 C 200.151 178.51 226.252 175.836 250.58 192.128 C 251.309 190.651 251.993 189.201 252.732 187.779 C 255.004 183.403 258.484 181.153 263.55 181.235 C 269.88 181.338 276.214 181.172 282.546 181.148 C 290.86 181.118 293.518 184.545 291.467 192.91 C 289.577 200.618 287.639 208.32 285.477 215.956 C 267.922 277.952 250.312 339.934 232.711 401.918 C 227.528 420.17 217.151 433.739 199.017 441.104 C 190.21 444.681 181.858 445.083 173.674 440.667 C 159.09 432.799 144.695 424.574 130.342 416.288 C 125.461 413.47 124.763 409.061 128.082 404.423 C 131.949 399.019 135.878 393.648 140.036 388.467 C 143.1 384.65 147.032 382.882 152.285 385.398 M 194.795 284.913 C 192.431 295.729 190.007 306.534 187.789 317.381 C 187.548 318.56 188.15 320.692 188.993 321.111 C 189.995 321.609 191.992 321.139 193.006 320.366 C 195.359 318.574 197.948 316.692 199.44 314.238 C 206.905 301.951 215.077 289.942 221.052 276.939 C 229.202 259.2 235.592 240.652 242.988 221.809 C 238.047 220.813 234.691 219.924 231.278 219.492 C 223.569 218.514 219.429 223.524 216.923 229.525 C 209.367 247.622 202.287 265.917 194.795 284.913 Z" fill="#010101"/>
  <path opacity="1.000000" stroke="none" d="M 539.493 327.077 C 529.185 341.855 519.196 356.538 504.045 366.34 C 487.974 376.738 470.193 381.841 451.429 376.682 C 430.187 370.843 419.07 354.58 413.757 334.109 C 408.717 314.689 409.017 294.997 411.457 275.188 C 414.955 246.796 421.268 219.13 431.572 192.421 C 440.96 168.087 454.091 146.233 474.182 129.111 C 493.471 112.672 515.325 107.406 539.572 115.464 C 557.277 121.348 566.42 135.546 571.385 152.424 C 574.168 161.888 575.362 171.859 576.772 181.673 C 577.665 187.891 575.441 191.254 569.648 193.101 C 559.419 196.363 549.128 199.468 538.755 202.235 C 531.676 204.122 527.652 200.845 526.27 193.445 C 524.451 183.709 522.369 174.019 520.285 164.335 C 519.288 159.699 516.215 158.941 511.979 160.024 C 505.691 161.631 501.752 166.114 498.311 171.024 C 489.278 183.914 484.171 198.608 479.343 213.41 C 471.784 236.587 465.358 260.11 463.128 284.401 C 461.969 297.03 463.155 309.913 463.83 322.653 C 464.073 327.235 465.678 332.351 470.636 333.978 C 475.928 335.715 479.102 331.016 481.432 327.59 C 487.939 318.022 493.998 308.115 499.673 298.026 C 506.044 286.701 507.389 285.972 519.515 291.18 C 527.414 294.572 535.297 298.001 543.163 301.469 C 548.595 303.863 550.325 307.616 547.746 313.099 C 545.504 317.867 542.418 322.238 539.493 327.077 Z" fill="#010101"/>
  <path opacity="1.000000" stroke="none" d="M 21.919 366.441 C 18.065 373.105 12.784 376.141 5.248 375.565 C -0.22 375.148 -5.746 375.534 -11.245 375.47 C -17.376 375.398 -20.094 372.091 -18.534 366.164 C -10.414 335.31 -2.206 304.478 6.014 273.649 C 13.211 246.657 20.477 219.683 27.684 192.693 C 29.703 185.132 32.687 180.415 42.743 181.018 C 49.718 181.437 56.738 181.041 63.735 181.18 C 70.89 181.324 73.641 184.292 71.571 190.892 C 67.672 203.317 63.062 215.52 58.769 227.822 C 58.674 228.094 58.835 228.456 59.022 229.88 C 60.521 228.329 61.753 227.321 62.66 226.077 C 70.388 215.467 77.893 204.689 85.797 194.213 C 92.351 185.525 100.956 180.539 112.281 181.053 C 118.269 181.325 124.284 180.985 130.274 181.236 C 140.493 181.663 146.63 189.185 144.162 199.133 C 137.515 225.927 130.514 252.636 123.514 279.341 C 116.012 307.959 108.344 336.533 100.764 365.131 C 98.439 373.905 96.535 375.457 87.717 375.479 C 79.718 375.499 71.718 375.517 63.719 375.473 C 57.002 375.436 55.555 373.471 57.36 366.791 C 63.609 343.652 69.946 320.536 76.146 297.383 C 79.178 286.059 82.04 274.688 84.83 263.302 C 85.261 261.546 84.89 259.593 84.89 257.731 C 84.342 257.513 83.793 257.296 83.244 257.078 C 81.5 259.09 79.329 260.867 78.076 263.149 C 64.208 288.389 50.473 313.702 36.722 339.006 C 31.818 348.03 26.968 357.082 21.919 366.441 Z" fill="#010101"/>
  <path opacity="1.000000" stroke="none" d="M 853.73 368.274 C 845.489 361.793 841.975 353.623 841.486 343.465 C 840.005 312.702 847.178 283.471 857.226 254.9 C 862.527 239.826 868.681 224.821 876.463 210.912 C 885.584 194.607 900.507 184.627 919.035 180.749 C 939.173 176.534 961.903 193.645 963.833 214.044 C 965.506 231.725 960.047 247.582 951.252 262.31 C 936.185 287.543 916.319 307.863 888.93 319.909 C 886.073 321.166 884.308 328.315 885.937 331.648 C 887.587 335.026 891.318 335.916 895.115 332.792 C 900.616 328.267 905.727 323.218 910.659 318.062 C 917.002 311.432 917.454 311.209 925.207 315.956 C 929.734 318.728 934.32 321.405 938.803 324.245 C 943.527 327.237 944.423 330.64 941.192 335.081 C 927.967 353.259 911.095 367.333 891.598 378.334 C 887.054 380.897 882.1 381.505 877.24 379.335 C 869.441 375.853 861.76 372.106 853.73 368.274 M 896.414 280.188 C 908.705 270.846 916.397 258.289 921.689 244.051 C 924.506 236.472 925.696 228.659 924.609 220.633 C 924.4 219.089 923.192 216.721 922.081 216.491 C 920.544 216.173 917.907 217.009 917.066 218.249 C 914.305 222.32 911.419 226.556 909.887 231.163 C 905.16 245.387 900.984 259.798 896.738 274.178 C 896.127 276.247 896.305 278.548 895.792 280.747 C 895.885 280.756 895.979 280.765 896.414 280.188 Z" fill="#010101"/>
  <path opacity="1.000000" stroke="none" d="M 294.842 361.01 C 292.98 354.725 290.048 348.785 289.868 342.764 C 288.526 297.745 302.049 256.163 321.287 216.301 C 330.464 197.285 346.346 185.22 367.305 180.733 C 386.501 176.624 408.926 192.722 411.799 212.076 C 414.319 229.044 409.395 244.48 401.417 258.775 C 386.429 285.631 365.965 307.165 337.249 319.809 C 333.993 321.242 332.249 328.493 334.248 331.961 C 336.107 335.187 339.593 335.844 343.563 332.578 C 349.063 328.053 354.148 322.985 359.113 317.861 C 365.345 311.429 365.64 311.237 373.242 315.849 C 377.777 318.6 382.343 321.303 386.822 324.142 C 391.924 327.376 392.767 330.538 389.304 335.25 C 376.107 353.206 359.372 367.185 340.119 378.225 C 335.426 380.916 330.484 381.067 325.26 379.402 C 313.741 375.731 302.787 371.244 294.842 361.01 M 358.787 228.951 C 353.38 245.854 347.974 262.758 342.567 279.662 C 343.084 279.894 343.6 280.126 344.117 280.359 C 345.158 279.619 346.268 278.958 347.232 278.128 C 359.148 267.857 366.984 254.86 371.095 239.883 C 372.806 233.651 372.514 226.827 372.716 220.258 C 372.758 218.913 371.161 216.688 369.923 216.358 C 368.614 216.009 366.256 217.004 365.366 218.177 C 362.986 221.315 361.147 224.864 358.787 228.951 Z" fill="#010101"/>
  <path opacity="1.000000" stroke="none" d="M -96.256 322.38 C -86.582 285.561 -76.968 249.15 -67.361 212.737 C -65.339 205.072 -63.387 197.389 -61.314 189.738 C -59.645 183.583 -56.663 181.217 -50.265 181.147 C -40.774 181.044 -31.282 181.046 -21.791 181.121 C -13.558 181.186 -11.504 183.993 -13.624 192.098 C -20.898 219.901 -28.172 247.704 -35.486 275.496 C -43.387 305.522 -51.332 335.536 -59.258 365.555 C -61.294 373.266 -63.95 375.421 -71.824 375.468 C -81.315 375.525 -90.809 375.568 -100.298 375.434 C -107.103 375.338 -109.178 372.532 -107.496 365.964 C -103.808 351.562 -100.049 337.178 -96.256 322.38 Z" fill="#010101"/>
  <path opacity="1.000000" stroke="none" d="M -0.559 146.916 C -9.35 160.358 -34.914 161.546 -44.71 150.612 C -51.5 143.034 -54.158 134.673 -50.888 125.02 C -47.726 115.688 -41.153 109.801 -31.228 108.143 C -10.509 104.683 4.774 116.326 3.596 135.059 C 3.35 138.98 1.022 142.77 -0.559 146.916 Z" fill="#020202"/>
  <path opacity="1.000000" stroke="none" d="M -492.207 207.185 C -484.009 218.08 -475.674 228.876 -467.688 239.924 C -464.924 243.747 -466.898 247.864 -472.293 249.955 C -487.947 256.024 -503.685 261.879 -519.376 267.855 C -554.64 281.286 -589.902 294.723 -625.149 308.197 C -632.033 310.828 -635.351 309.802 -639.6 303.69 C -651.76 286.202 -664.001 268.771 -676.15 251.275 C -678.402 248.032 -680.37 244.591 -682.374 241.392 C -681.853 240.842 -681.768 240.665 -681.646 240.635 C -669.771 237.65 -672.423 236.696 -665.947 245.853 C -654.891 261.483 -643.824 277.109 -633.074 292.948 C -630.377 296.922 -627.976 298.509 -623.549 295.888 C -621.432 294.634 -618.973 293.957 -615.971 292.735 C -620.778 285.763 -625.374 279.078 -629.992 272.408 C -632.173 269.26 -634.408 266.149 -636.597 263.006 C -640.248 257.762 -640.003 256.255 -633.959 253.778 C -621.957 248.86 -609.808 244.301 -597.743 239.535 C -585.21 234.585 -572.651 229.697 -560.218 224.507 C -555.766 222.648 -552.807 223.443 -549.96 227.311 C -542.956 236.828 -535.75 246.201 -528.425 255.474 C -527.452 256.705 -524.948 258.025 -523.77 257.599 C -509.579 252.459 -495.504 246.999 -480.765 241.38 C -487.83 231.385 -494.611 221.793 -501.368 211.525 C -498.299 209.628 -495.253 208.407 -492.207 207.185 Z" fill="#FAFAFA"/>
  <path opacity="1.000000" stroke="none" d="M -399.43 360.332 C -396.297 363.959 -393.163 367.587 -389.63 371.676 C -395.254 373.895 -400.837 376.12 -406.436 378.304 C -462.731 400.265 -519.025 422.232 -575.33 444.167 C -588.93 449.465 -602.568 454.663 -616.199 459.881 C -621.372 461.861 -626.566 462.012 -632.066 459.129 C -631.371 450.971 -630.169 443.512 -629.388 436.01 C -628.919 431.502 -626.81 428.929 -622.585 427.409 C -616.728 425.302 -611.028 422.758 -604.883 420.374 C -601.076 419.127 -597.61 417.999 -594.222 416.67 C -571.021 407.565 -547.846 398.392 -524.643 389.292 C -489.991 375.702 -455.335 362.122 -420.649 348.62 C -414.818 346.35 -408.826 344.495 -402.908 342.448 C -402.646 345.753 -402.383 349.057 -402.562 352.813 C -403.8 353.468 -404.633 353.585 -405.391 353.888 C -419.707 359.616 -434.007 365.385 -448.327 371.103 C -455.414 373.932 -462.649 376.432 -469.558 379.637 C -471.162 380.381 -471.712 383.397 -472.747 385.367 C -470.694 385.708 -468.319 386.895 -466.638 386.257 C -451.595 380.544 -436.696 374.453 -421.708 368.593 C -414.333 365.709 -406.859 363.077 -399.43 360.332 M -623.124 445.915 C -620.589 445.404 -617.92 445.243 -615.541 444.328 C -590.415 434.657 -565.327 424.889 -540.256 415.077 C -537.656 414.059 -535.018 412.87 -532.829 411.196 C -531.878 410.469 -531.459 408.135 -531.86 406.866 C -532.133 406.002 -534.237 405.325 -535.544 405.286 C -536.951 405.245 -538.419 405.955 -539.799 406.495 C -554.961 412.428 -570.109 418.395 -585.265 424.344 C -597.023 428.96 -608.817 433.486 -620.526 438.222 C -623.627 439.476 -627.133 441.065 -623.124 445.915 Z" fill="#FBFCFC"/>
  <path opacity="1.000000" stroke="none" d="M -605.261 420.4 C -611.028 422.758 -616.728 425.302 -622.585 427.409 C -626.81 428.929 -628.919 431.502 -629.388 436.01 C -630.169 443.512 -631.371 450.971 -632.379 458.909 C -640.842 455.661 -646.074 445.693 -644.87 434.955 C -642.761 416.145 -633.363 401.466 -617.325 392.021 C -606.661 385.74 -594.815 381.362 -583.264 376.714 C -557.492 366.344 -531.585 356.307 -505.711 346.191 C -467.128 331.108 -428.526 316.074 -389.93 301.025 C -389.318 300.786 -388.678 300.62 -387.104 300.119 C -389.091 305.421 -390.846 310.101 -393.163 315.187 C -394.875 316.255 -395.961 317.076 -397.182 317.557 C -418.204 325.832 -439.235 334.085 -460.28 342.302 C -478.392 349.374 -496.547 356.332 -514.64 363.451 C -539.686 373.306 -564.754 383.111 -589.678 393.267 C -597.605 396.497 -605.432 400.251 -612.69 404.756 C -618.062 408.091 -621.51 413.687 -624.852 420.701 C -619.107 418.526 -614.722 416.866 -610.167 415.534 C -608.418 417.375 -606.84 418.888 -605.261 420.4 Z" fill="#B3B8C0"/>
  <path opacity="1.000000" stroke="none" d="M -610.337 415.206 C -614.722 416.866 -619.107 418.526 -624.852 420.701 C -621.51 413.687 -618.062 408.091 -612.69 404.756 C -605.432 400.251 -597.605 396.497 -589.678 393.267 C -564.754 383.111 -539.686 373.306 -514.64 363.451 C -496.547 356.332 -478.392 349.374 -460.28 342.302 C -439.235 334.085 -418.204 325.832 -397.182 317.557 C -395.961 317.076 -394.875 316.255 -393.395 315.451 C -395.266 319.981 -397.479 324.647 -399.666 329.325 C -400.364 330.818 -400.993 332.343 -402.288 334.062 C -425.084 342.767 -447.282 351.169 -469.399 359.78 C -497.417 370.687 -525.371 381.759 -553.35 392.767 C -572.348 400.241 -591.341 407.726 -610.337 415.206 Z" fill="#FCFDFC"/>
  <path opacity="1.000000" stroke="none" d="M -610.167 415.534 C -591.341 407.726 -572.348 400.241 -553.35 392.767 C -525.371 381.759 -497.417 370.687 -469.399 359.78 C -447.282 351.169 -425.084 342.767 -402.526 334.327 C -402.249 336.798 -402.368 339.215 -402.698 342.039 C -408.826 344.495 -414.818 346.35 -420.649 348.62 C -455.335 362.122 -489.991 375.702 -524.643 389.292 C -547.846 398.392 -571.021 407.565 -594.222 416.67 C -597.61 417.999 -601.076 419.127 -604.883 420.374 C -606.84 418.888 -608.418 417.375 -610.167 415.534 Z" fill="#B2B9C0"/>
  <path opacity="1.000000" stroke="none" d="M -399.474 359.982 C -406.859 363.077 -414.333 365.709 -421.708 368.593 C -436.696 374.453 -451.595 380.544 -466.638 386.257 C -468.319 386.895 -470.694 385.708 -472.747 385.367 C -471.712 383.397 -471.162 380.381 -469.558 379.637 C -462.649 376.432 -455.414 373.932 -448.327 371.103 C -434.007 365.385 -419.707 359.616 -405.391 353.888 C -404.633 353.585 -403.8 353.468 -402.618 353.267 C -401.328 355.39 -400.423 357.511 -399.474 359.982 Z" fill="#B2BAC0"/>
  <path opacity="1.000000" stroke="none" d="M -492.262 206.852 C -495.253 208.407 -498.299 209.628 -501.513 211.213 C -502.607 210.343 -503.533 209.108 -505.41 206.603 C -500.02 207.893 -496.598 202.331 -492.262 206.852 Z" fill="#94989F"/>
  <path opacity="1.000000" stroke="none" d="M 635.337 304.887 C 631.645 309.623 628.418 314.295 624.61 318.432 C 622.932 320.256 620.073 320.992 617.751 322.223 C 617.195 321.812 616.641 321.402 616.086 320.992 C 617.287 314.569 618.254 308.09 619.733 301.731 C 625.223 278.133 633.227 255.401 643.748 233.569 C 644.824 231.336 646.055 229.163 647.386 227.072 C 652.081 219.698 654.893 218.513 663.63 220.112 C 665.885 220.525 668.12 221.047 670.831 221.617 C 662.4 250.968 651.336 278.774 635.337 304.887 Z" fill="#FCFCFC"/>
  <path opacity="1.000000" stroke="none" d="M 715.245 333.745 C 715.278 333.801 715.212 333.69 715.245 333.745 Z" fill="#010101"/>
  <path opacity="1.000000" stroke="none" d="M -230.211 328.684 C -224.593 306.674 -218.915 285.128 -213.568 263.5 C -212.796 260.374 -211.796 259.274 -208.692 259.619 C -202.593 260.296 -196.436 260.521 -190.369 261.394 C -182.562 262.517 -178.174 267.438 -177.261 275.349 C -174.928 295.564 -187.306 320.024 -204.396 326.336 C -212.108 329.184 -220.874 329.183 -229.175 330.389 C -229.468 330.432 -229.894 329.565 -230.211 328.684 Z" fill="#FDFDFD"/>
  <path opacity="1.000000" stroke="none" d="M -197.9 201.68 C -194.248 187.547 -190.79 173.786 -187.206 160.059 C -186.934 159.016 -185.775 157.415 -185.021 157.411 C -179.227 157.378 -173.307 157.003 -167.666 158.036 C -160.116 159.419 -156.257 164.531 -156.659 172.906 C -157.335 186.991 -160.583 200.511 -169.915 211.654 C -178.51 221.915 -189.886 224.376 -203.055 222.488 C -201.322 215.397 -199.692 208.729 -197.9 201.68 Z" fill="#FCFCFC"/>
  <path opacity="1.000000" stroke="none" d="M -503.36 139.434 C -516.4 147.24 -531.022 136.828 -530.637 124.761 C -530.363 116.19 -525.643 109.52 -517.609 107.541 C -509.161 105.461 -501.322 108.885 -497.378 116.379 C -493.494 123.758 -494.937 132.034 -501.105 137.674 C -501.715 138.232 -502.394 138.716 -503.36 139.434 Z" fill="#FAFAFA"/>
  <path opacity="1.000000" stroke="none" d="M -545.9 84.109 C -554.581 77.698 -556.749 68.888 -552.037 60.316 C -548.303 53.525 -538.668 49.896 -531.27 52.495 C -522.272 55.656 -517.474 64.123 -519.402 73.441 C -521.724 84.663 -533.593 89.588 -545.9 84.109 Z" fill="#FAFAFA"/>
  <path opacity="1.000000" stroke="none" d="M -679.335 137.451 C -665.049 138.323 -658.197 152.548 -663.361 162.555 C -667.177 169.951 -675.15 173.834 -683.431 171.933 C -691.357 170.114 -697.117 163.028 -697.146 155.06 C -697.177 146.623 -691.692 139.902 -683.187 137.996 C -682.055 137.742 -680.893 137.621 -679.335 137.451 Z" fill="#FAFAF9"/>
  <path opacity="1.000000" stroke="none" d="M -649.716 117.346 C -645.941 108.061 -636.413 103.381 -627.748 106.29 C -619.224 109.152 -614.189 118.504 -616.327 127.506 C -618.404 136.251 -627.449 141.863 -636.66 140.122 C -645.61 138.431 -651.487 130.161 -650.487 120.625 C -650.385 119.644 -650.107 118.681 -649.716 117.346 Z" fill="#FAFAFA"/>
  <path opacity="1.000000" stroke="none" d="M -689.505 106.435 C -695.033 99.154 -695.547 91.055 -691.107 84.908 C -686.648 78.735 -678.639 75.985 -671.708 78.248 C -664.075 80.74 -658.858 87.687 -659.097 95.527 C -659.309 102.469 -662.789 107.578 -669.08 110.392 C -676.521 113.719 -683.34 112.374 -689.505 106.435 Z" fill="#F9F9F9"/>
  <path opacity="1.000000" stroke="none" d="M -576.825 95.596 C -564.519 87.405 -551.061 95.656 -549.215 107.036 C -547.871 115.32 -551.717 122.304 -559.324 125.606 C -566.753 128.831 -575.208 126.515 -580.188 119.893 C -584.976 113.525 -584.894 104.806 -579.932 98.637 C -579.105 97.608 -578.068 96.748 -576.825 95.596 Z" fill="#FAFAF9"/>
  <path opacity="1.000000" stroke="none" d="M -533.365 107.681 C -539.215 108.818 -543.304 106.935 -543.009 102.861 C -542.831 100.402 -540.91 97.324 -538.83 95.933 C -536.124 94.122 -532.957 95.419 -531.14 98.353 C -528.949 101.891 -529.721 104.988 -533.365 107.681 Z" fill="#EEEFF0"/>
  <path opacity="1.000000" stroke="none" d="M -660.251 130.207 C -665.613 132.57 -669.533 131.579 -671 127.824 C -672.332 124.418 -670.755 120.153 -667.147 119.553 C -664.82 119.167 -661.575 120.035 -659.805 121.569 C -657.141 123.876 -657.602 127.179 -660.251 130.207 Z" fill="#EEEFF0"/>
  <path opacity="1.000000" stroke="none" d="M 194.908 284.524 C 202.287 265.917 209.367 247.622 216.923 229.525 C 219.429 223.524 223.569 218.514 231.278 219.492 C 234.691 219.924 238.047 220.813 242.988 221.809 C 235.592 240.652 229.202 259.2 221.052 276.939 C 215.077 289.942 206.905 301.951 199.44 314.238 C 197.948 316.692 195.359 318.574 193.006 320.366 C 191.992 321.139 189.995 321.609 188.993 321.111 C 188.15 320.692 187.548 318.56 187.789 317.381 C 190.007 306.534 192.431 295.729 194.908 284.524 Z" fill="#FBFBFB"/>
  <path opacity="1.000000" stroke="none" d="M 896.117 280.742 C 896.305 278.548 896.127 276.247 896.738 274.178 C 900.984 259.798 905.16 245.387 909.887 231.163 C 911.419 226.556 914.305 222.32 917.066 218.249 C 917.907 217.009 920.544 216.173 922.081 216.491 C 923.192 216.721 924.4 219.089 924.609 220.633 C 925.696 228.659 924.506 236.472 921.689 244.051 C 916.397 258.289 908.705 270.846 896.236 280.445 C 896.058 280.702 896.117 280.742 896.117 280.742 Z" fill="#FBFBFB"/>
  <path opacity="1.000000" stroke="none" d="M 896.065 280.738 C 895.979 280.765 895.885 280.756 895.955 280.744 C 896.117 280.742 896.058 280.702 896.065 280.738 Z" fill="#FBFBFB"/>
  <path opacity="1.000000" stroke="none" d="M 358.94 228.6 C 361.147 224.864 362.986 221.315 365.366 218.177 C 366.256 217.004 368.614 216.009 369.923 216.358 C 371.161 216.688 372.758 218.913 372.716 220.258 C 372.514 226.827 372.806 233.651 371.095 239.883 C 366.984 254.86 359.148 267.857 347.232 278.128 C 346.268 278.958 345.158 279.619 344.117 280.359 C 343.6 280.126 343.084 279.894 342.567 279.662 C 347.974 262.758 353.38 245.854 358.94 228.6 Z" fill="#F9F9F9"/>
  <path opacity="1.000000" stroke="none" d="M -623.431 445.68 C -627.133 441.065 -623.627 439.476 -620.526 438.222 C -608.817 433.486 -597.023 428.96 -585.265 424.344 C -570.109 418.395 -554.961 412.428 -539.799 406.495 C -538.419 405.955 -536.951 405.245 -535.544 405.286 C -534.237 405.325 -532.133 406.002 -531.86 406.866 C -531.459 408.135 -531.878 410.469 -532.829 411.196 C -535.018 412.87 -537.656 414.059 -540.256 415.077 C -565.327 424.889 -590.415 434.657 -615.541 444.328 C -617.92 445.243 -620.589 445.404 -623.431 445.68 Z" fill="#B2BAC0"/>
</svg>